<svg width="26" height="26" viewBox="0 0 26 26" fill="none" xmlns="http://www.w3.org/2000/svg">
<g id="vuesax/twotone/book-saved">
<g id="book-saved">
<path id="Vector" d="M23.8184 5.35223V17.9252C23.8184 18.9252 23.006 19.8626 22.006 19.9876L21.6622 20.0293C19.3914 20.3314 15.8913 21.4876 13.8913 22.5918C13.6205 22.748 13.1726 22.748 12.8914 22.5918L12.8497 22.571C10.8497 21.4773 7.36014 20.3314 5.09972 20.0293L4.7976 19.9876C3.7976 19.8626 2.98511 18.9252 2.98511 17.9252V5.3418C2.98511 4.10222 3.9955 3.16473 5.23508 3.26889C7.42258 3.44598 10.7351 4.55017 12.5892 5.70642L12.8497 5.86263C13.1517 6.05013 13.6518 6.05013 13.9539 5.86263L14.131 5.74807C14.7872 5.34182 15.6205 4.93556 16.5268 4.57098C17.8914 4.02931 19.4122 3.59186 20.6934 3.38353C20.9747 3.33144 21.2455 3.30015 21.4955 3.27932H21.558C22.7976 3.17515 23.8184 4.10223 23.8184 5.35223Z" stroke="#20C287" stroke-width="1.5" stroke-linecap="round" stroke-linejoin="round"/>
<path id="Vector_2" d="M13.4019 6.20703V21.832" stroke="#20C287" stroke-width="1.5" stroke-linecap="round" stroke-linejoin="round"/>
<path id="Vector_3" d="M20.6935 3.38416V8.82162L18.6102 7.43619L16.5269 8.82162V4.57161C17.8914 4.02994 19.4123 3.59249 20.6935 3.38416Z" stroke="#20C287" stroke-width="1.5" stroke-linecap="round" stroke-linejoin="round"/>
</g>
</g>
</svg>
