<svg width="26" height="26" viewBox="0 0 26 26" fill="none" xmlns="http://www.w3.org/2000/svg">
<g id="vuesax/twotone/car">
<g id="car">
<path id="Vector" d="M16.8751 3.07074H9.56258C6.96883 3.07074 6.39591 4.36241 6.06258 5.94574L4.8855 11.5812H21.5522L20.3751 5.94574C20.0417 4.36241 19.4688 3.07074 16.8751 3.07074Z" stroke="#20C287" stroke-width="1.5" stroke-linecap="round" stroke-linejoin="round"/>
<path id="Vector_2" d="M23.6251 20.7686C23.7397 21.9874 22.7605 23.0394 21.5105 23.0394H19.5522C18.4272 23.0394 18.2709 22.5603 18.073 21.9665L17.8647 21.3415C17.573 20.4874 17.3855 19.9144 15.8855 19.9144H10.5522C9.05217 19.9144 8.83343 20.5603 8.57301 21.3415L8.36468 21.9665C8.16676 22.5603 8.01051 23.0394 6.88551 23.0394H4.92718C3.67718 23.0394 2.69801 21.9874 2.81259 20.7686L3.39593 14.4249C3.54176 12.8624 3.84384 11.5811 6.57301 11.5811H19.8647C22.5938 11.5811 22.8959 12.8624 23.0418 14.4249L23.6251 20.7686Z" stroke="#20C287" stroke-width="1.5" stroke-linecap="round" stroke-linejoin="round"/>
<path id="Vector_3" d="M4.88554 8.45612H3.84387" stroke="#20C287" stroke-width="1.5" stroke-linecap="round" stroke-linejoin="round"/>
<path id="Vector_4" d="M22.5939 8.45612H21.5522" stroke="#20C287" stroke-width="1.5" stroke-linecap="round" stroke-linejoin="round"/>
<path id="Vector_5" d="M6.96887 15.7478H10.0939" stroke="#20C287" stroke-width="1.5" stroke-linecap="round" stroke-linejoin="round"/>
<path id="Vector_6" d="M16.3439 15.7478H19.4689" stroke="#20C287" stroke-width="1.5" stroke-linecap="round" stroke-linejoin="round"/>
</g>
</g>
</svg>
