<svg width="66" height="66" viewBox="0 0 66 66" fill="none" xmlns="http://www.w3.org/2000/svg">
<g id="Group 35841">
<g id="Group 35842">
<g id="Group 35858">
<g id="Group 35859">
<g id="Ellipse 104">
<circle cx="33.2188" cy="33.242" r="32.3497" fill="#08B576" fill-opacity="0.08"/>
<circle cx="33.2188" cy="33.242" r="31.8497" stroke="#20C287" stroke-opacity="0.26"/>
</g>
<g id="vuesax/twotone/flash-circle">
<g id="flash-circle">
<path id="Vector" d="M29.7605 34.6744H31.573V38.8931C31.573 39.5181 32.3438 39.8098 32.7605 39.341L37.198 34.2994C37.5834 33.8619 37.2709 33.1744 36.6876 33.1744H34.8751V28.9556C34.8751 28.3306 34.1042 28.0389 33.6876 28.5077L29.2501 33.5494C28.8647 33.9869 29.1772 34.6744 29.7605 34.6744Z" stroke="#20C287" stroke-width="1.5" stroke-miterlimit="10" stroke-linecap="round" stroke-linejoin="round"/>
<path id="Vector_2" d="M33.1877 44.3415C38.9406 44.3415 43.6043 39.6778 43.6043 33.9248C43.6043 28.1719 38.9406 23.5082 33.1877 23.5082C27.4347 23.5082 22.771 28.1719 22.771 33.9248C22.771 39.6778 27.4347 44.3415 33.1877 44.3415Z" stroke="#20C287" stroke-width="1.5" stroke-miterlimit="10" stroke-linecap="round" stroke-linejoin="round"/>
</g>
</g>
</g>
</g>
</g>
</g>
</svg>
