<svg width="11" height="16" viewBox="0 0 11 16" fill="none" xmlns="http://www.w3.org/2000/svg">
<g id="vuesax/twotone/people">
<g id="people">
<g id="Group">
<path id="Vector" d="M5.40185 7.03235C5.33935 7.02194 5.26644 7.02194 5.20394 7.03235C3.76644 6.98027 2.62061 5.80318 2.62061 4.34485C2.62061 2.85527 3.81852 1.65735 5.3081 1.65735C6.79769 1.65735 7.9956 2.86568 7.9956 4.34485C7.98519 5.80318 6.83935 6.99069 5.40185 7.03235Z" stroke="#20C287" stroke-width="1.5" stroke-linecap="round" stroke-linejoin="round"/>
<path id="Vector_2" d="M2.37061 10.3132C0.901856 11.2923 0.901856 12.8965 2.37061 13.8757C4.03727 14.9903 6.76644 14.9903 8.4331 13.8757C9.90185 12.8965 9.90185 11.2923 8.4331 10.3132C6.77685 9.209 4.03727 9.209 2.37061 10.3132Z" stroke="#20C287" stroke-width="1.5" stroke-linecap="round" stroke-linejoin="round"/>
</g>
</g>
</g>
</svg>
